<svg width="83" height="149" viewBox="0 0 83 149" fill="none" xmlns="http://www.w3.org/2000/svg">
<path fill-rule="evenodd" clip-rule="evenodd" d="M30.9593 86.1052V88.656H29.5469V80.9996H33.0799C33.6221 80.9846 34.1576 81.1243 34.6243 81.4026C34.9632 81.6085 35.2452 81.8968 35.4444 82.2411C35.6437 82.5855 35.7538 82.9747 35.7647 83.3731C35.8039 83.8159 35.7338 84.2617 35.5606 84.6706C35.4329 84.9677 35.2392 85.2312 34.9943 85.4408C34.7494 85.6504 34.4599 85.8005 34.1482 85.8795L33.9082 85.944L34.3083 86.4235C34.8124 87.0078 35.3206 87.5922 35.8247 88.1805C35.9087 88.2772 36.0008 88.3779 36.0848 88.4827C36.1178 88.5353 36.1433 88.5923 36.1608 88.6519H34.5283C34.5016 88.6529 34.475 88.6476 34.4507 88.6364C34.4264 88.6252 34.405 88.6084 34.3883 88.5875L32.3477 86.1697C32.3293 86.1457 32.3056 86.1263 32.2785 86.1131C32.2515 86.0998 32.2217 86.093 32.1916 86.0931H30.9433L30.9593 86.1052ZM30.9593 84.7835H33.0519H33.304C33.585 84.7634 33.8485 84.6381 34.0425 84.4323C34.2365 84.2265 34.347 83.955 34.3523 83.6713C34.3756 83.4331 34.3264 83.1934 34.2114 82.984C34.0963 82.7746 33.9208 82.6053 33.7081 82.4987C33.4961 82.4065 33.2666 82.3625 33.0359 82.3697H30.9593V84.7835Z" fill="#307361"/>
<path fill-rule="evenodd" clip-rule="evenodd" d="M46.4104 83.3648L46.9265 82.7L47.8908 83.4535L47.4907 83.9814C47.4427 84.0418 47.3986 84.1063 47.3466 84.1627C47.2946 84.2191 47.3186 84.2353 47.3466 84.2755C47.6771 84.69 47.8552 85.2068 47.8508 85.7383C47.8606 86.0753 47.8091 86.4113 47.6987 86.7296C47.6243 86.9649 47.5033 87.1827 47.3431 87.3697C47.1829 87.5566 46.9867 87.709 46.7665 87.8176C46.8945 87.9022 47.0185 87.9748 47.1306 88.0594C47.3423 88.2198 47.5153 88.4263 47.6366 88.6636C47.7578 88.9009 47.8242 89.1627 47.8308 89.4295C47.8541 89.8123 47.7954 90.1957 47.6587 90.5537C47.556 90.8204 47.4005 91.0633 47.2017 91.2677C47.003 91.472 46.765 91.6336 46.5024 91.7425C46.0786 91.9375 45.6169 92.0347 45.151 92.027C44.6852 92.0194 44.2269 91.907 43.8096 91.6982C43.4541 91.536 43.1488 91.28 42.9262 90.9572C42.7036 90.6343 42.5719 90.2568 42.5452 89.8647C42.5452 89.8244 42.5452 89.7841 42.5452 89.7438V89.6028H43.8336C43.8336 89.6632 43.8336 89.7277 43.8536 89.7881C43.8834 89.9554 43.9523 90.1132 44.0545 90.2484C44.1568 90.3837 44.2895 90.4925 44.4418 90.5658C44.674 90.688 44.932 90.7518 45.194 90.7518C45.456 90.7518 45.714 90.688 45.9462 90.5658C46.0733 90.4997 46.186 90.4086 46.2777 90.298C46.3693 90.1873 46.438 90.0593 46.4798 89.9215C46.5216 89.7837 46.5355 89.6389 46.5208 89.4955C46.5062 89.3522 46.4632 89.2133 46.3944 89.087C46.3028 88.9162 46.1638 88.7762 45.9942 88.684C45.7284 88.552 45.4342 88.4883 45.138 88.4986C44.7244 88.5018 44.315 88.4152 43.9377 88.2447C43.6484 88.116 43.3898 87.9264 43.1794 87.6887C42.9689 87.451 42.8113 87.1707 42.7173 86.8666C42.4911 86.2161 42.4799 85.5093 42.6853 84.8518C42.8025 84.4249 43.034 84.0387 43.3543 83.7353C43.6747 83.4318 44.0716 83.2229 44.5018 83.1311C45.042 82.9781 45.6165 83.0021 46.1423 83.1996C46.2351 83.2487 46.3247 83.3039 46.4104 83.3648ZM43.8416 85.8068C43.8246 85.9934 43.8458 86.1815 43.904 86.3595C43.9622 86.5375 44.0562 86.7015 44.18 86.8413C44.3039 86.9812 44.455 87.0939 44.6239 87.1724C44.7928 87.2509 44.976 87.2936 45.162 87.2978C45.3701 87.3118 45.5784 87.273 45.7678 87.185C45.9572 87.097 46.1218 86.9626 46.2463 86.7941C46.4788 86.4807 46.5872 86.0914 46.5504 85.702C46.5569 85.3421 46.4224 84.994 46.1761 84.7331C45.9298 84.4721 45.5913 84.3194 45.234 84.3078C45.0307 84.2964 44.8277 84.3348 44.6423 84.4198C44.457 84.5047 44.2948 84.6335 44.1697 84.7954C43.9451 85.086 43.829 85.4468 43.8416 85.8149V85.8068Z" fill="#307361"/>
<path fill-rule="evenodd" clip-rule="evenodd" d="M67.7405 83.9736C67.7405 83.7278 67.7685 83.4981 67.7845 83.2644H69.0328V88.656H67.8045C67.7845 88.4102 67.7645 88.1685 67.7445 87.9146C67.6885 87.9871 67.6444 88.0596 67.5884 88.1241C67.355 88.4092 67.0388 88.6136 66.6842 88.7084C66.2556 88.8436 65.7995 88.8646 65.3605 88.7692C64.9215 88.6739 64.5146 88.4655 64.1794 88.1644C63.7794 87.7998 63.513 87.31 63.4232 86.7742C63.2631 86.0779 63.3147 85.3492 63.5713 84.6828C63.7155 84.3095 63.951 83.9789 64.256 83.7218C64.561 83.4646 64.9255 83.2893 65.3158 83.212C65.7085 83.1119 66.1182 83.0995 66.5161 83.1757C66.7641 83.2156 67.0011 83.3072 67.2119 83.4445C67.4227 83.5819 67.6027 83.7621 67.7405 83.9736V83.9736ZM64.6476 85.9884C64.6543 86.0951 64.6663 86.2013 64.6836 86.3068C64.7151 86.5528 64.809 86.7866 64.9561 86.9856C65.1033 87.1846 65.2988 87.3422 65.5238 87.4431C65.8016 87.5705 66.1098 87.6153 66.4121 87.5721C66.5952 87.556 66.7732 87.5023 66.9349 87.4143C67.0966 87.3263 67.2387 87.2058 67.3524 87.0603C67.5081 86.8608 67.6186 86.6293 67.676 86.3821C67.7334 86.135 67.7362 85.8782 67.6844 85.6298C67.6592 85.425 67.5918 85.2277 67.4863 85.0507C67.3809 84.8738 67.2399 84.721 67.0723 84.6022C66.8213 84.4263 66.5217 84.3347 66.216 84.3403C65.9916 84.328 65.7673 84.3665 65.5595 84.453C65.3518 84.5394 65.166 84.6717 65.0157 84.84C64.758 85.1636 64.6245 85.5698 64.6396 85.9844L64.6476 85.9884Z" fill="#307361"/>
<path fill-rule="evenodd" clip-rule="evenodd" d="M41.81 86.4435H37.7289C37.7588 86.7137 37.882 86.9647 38.077 87.1527C38.3092 87.3756 38.6067 87.517 38.9252 87.5557C39.4287 87.6335 39.9435 87.5414 40.3896 87.2938C40.4965 87.2319 40.5994 87.1633 40.6977 87.0883C40.9538 87.3703 41.2219 87.6565 41.4979 87.9547C41.4379 88.007 41.3579 88.0836 41.2699 88.1521C40.8831 88.454 40.4281 88.6547 39.9455 88.7364C39.207 88.8978 38.4361 88.8041 37.7569 88.4705C37.4623 88.322 37.2013 88.1141 36.99 87.8597C36.7787 87.6052 36.6216 87.3097 36.5285 86.9916C36.2904 86.2633 36.3102 85.4744 36.5845 84.7591C36.734 84.3554 36.9853 83.9978 37.3136 83.7216C37.6419 83.4453 38.036 83.2599 38.4571 83.1835C39.0599 83.0407 39.6909 83.0771 40.2736 83.2883C40.6648 83.427 41.0106 83.6714 41.2731 83.9948C41.5357 84.3182 41.7048 84.7081 41.762 85.1218C41.8365 85.5065 41.8594 85.8996 41.83 86.2904C41.826 86.3307 41.818 86.3791 41.81 86.4435ZM40.5617 85.3152C40.5433 85.1276 40.4769 84.9479 40.3689 84.7939C40.2609 84.6399 40.115 84.5169 39.9455 84.4367C39.6509 84.3086 39.3275 84.2627 39.0092 84.3038C38.7404 84.3222 38.4817 84.4142 38.261 84.5697C38.0135 84.7531 37.8357 85.0161 37.7569 85.3152H40.5617Z" fill="#307361"/>
<path fill-rule="evenodd" clip-rule="evenodd" d="M56.4752 85.8678C56.5064 86.6293 56.2457 87.3738 55.747 87.9471C55.3875 88.3435 54.9103 88.6121 54.3866 88.7127C53.7758 88.8493 53.1379 88.7901 52.5621 88.5435C52.2219 88.3991 51.9185 88.1791 51.6746 87.9C51.4307 87.6209 51.2526 87.2898 51.1537 86.9316C50.9079 86.1941 50.9509 85.3899 51.2737 84.6831C51.465 84.2353 51.7811 83.8531 52.1838 83.5827C52.5865 83.3123 53.0584 83.1654 53.5424 83.1599C54.0762 83.1122 54.6121 83.2244 55.0828 83.4823C55.4267 83.6704 55.7243 83.9338 55.9535 84.2533C56.1827 84.5727 56.3378 84.94 56.4072 85.3278C56.4472 85.5374 56.4592 85.755 56.4752 85.8678ZM55.1469 85.9444C55.1548 85.5285 55.0028 85.1257 54.7227 84.8201C54.5824 84.6604 54.4057 84.5373 54.2078 84.4615C54.0099 84.3857 53.7966 84.3594 53.5864 84.3849C53.4107 84.3966 53.2395 84.4453 53.0837 84.5279C52.9279 84.6105 52.7911 84.7251 52.6821 84.8644C52.5076 85.0893 52.3896 85.3532 52.338 85.6338C52.2865 85.9144 52.303 86.2034 52.3861 86.4763C52.4383 86.7251 52.5609 86.9534 52.7391 87.1336C52.9173 87.3137 53.1435 87.4381 53.3904 87.4917C53.5603 87.5253 53.734 87.5348 53.9065 87.52C54.0722 87.5106 54.2343 87.4668 54.3824 87.3912C54.5304 87.3156 54.6613 87.2099 54.7667 87.0807C55.0276 86.7617 55.1628 86.3573 55.1469 85.9444V85.9444Z" fill="#307361"/>
<path fill-rule="evenodd" clip-rule="evenodd" d="M62.5134 88.6527H61.2131V85.8319C61.2141 85.5944 61.1693 85.359 61.081 85.1388C61.0054 84.94 60.8755 84.7667 60.7063 84.6391C60.5371 84.5114 60.3355 84.4346 60.1247 84.4175C59.9325 84.3881 59.7361 84.4045 59.5512 84.4654C59.3664 84.5263 59.1983 84.63 59.0604 84.7681C58.9203 84.9027 58.809 85.0646 58.7333 85.2441C58.6576 85.4236 58.6192 85.6168 58.6203 85.8118C58.6203 86.7225 58.6203 87.6291 58.6203 88.5398V88.6567H57.3359V83.257H58.4963C58.5243 83.4907 58.5523 83.7204 58.5843 83.9702C58.6101 83.9494 58.6342 83.9265 58.6563 83.9017C58.9886 83.557 59.4145 83.3187 59.8807 83.2167C60.4162 83.1027 60.9747 83.2012 61.4398 83.4917C61.9049 83.7823 62.2408 84.2424 62.3774 84.7761C62.4766 85.1081 62.5265 85.453 62.5254 85.7997C62.5254 86.7104 62.5254 87.6251 62.5254 88.5358L62.5134 88.6527Z" fill="#307361"/>
<path fill-rule="evenodd" clip-rule="evenodd" d="M70.1133 81.0117H71.4057V88.6681H70.1133V81.0117Z" fill="#307361"/>
<path fill-rule="evenodd" clip-rule="evenodd" d="M48.6719 83.2407H49.9723V88.6566H48.6719V83.2407Z" fill="#307361"/>
<path fill-rule="evenodd" clip-rule="evenodd" d="M40.7119 80.8462C40.7012 80.8801 40.6864 80.9126 40.6679 80.9429C40.3077 81.4063 39.9476 81.8737 39.5795 82.3412C39.5686 82.357 39.5543 82.3703 39.5377 82.38C39.5211 82.3898 39.5026 82.3958 39.4835 82.3976H38.4072H38.3672C38.3763 82.3534 38.3897 82.3102 38.4072 82.2686C38.6473 81.8133 38.8833 81.362 39.1274 80.9147C39.1368 80.8964 39.1504 80.8806 39.1672 80.8687C39.1839 80.8568 39.2032 80.849 39.2234 80.8462H40.6638H40.7119Z" fill="#307361"/>
<path fill-rule="evenodd" clip-rule="evenodd" d="M48.5519 81.7539C48.5527 81.6004 48.5986 81.4506 48.6837 81.3233C48.7689 81.1961 48.8896 81.097 49.0305 81.0387C49.1714 80.9803 49.3264 80.9652 49.4758 80.9954C49.6252 81.0255 49.7624 81.0995 49.8702 81.208C49.978 81.3165 50.0514 81.4547 50.0814 81.6052C50.1113 81.7557 50.0963 81.9117 50.0384 82.0537C49.9804 82.1956 49.8821 82.3171 49.7557 82.4029C49.6293 82.4887 49.4806 82.5349 49.3282 82.5357C49.2247 82.5415 49.1212 82.5253 49.0244 82.488C48.9276 82.4508 48.8397 82.3934 48.7664 82.3196C48.6932 82.2459 48.6362 82.1573 48.5992 82.0598C48.5623 81.9623 48.5461 81.8581 48.5519 81.7539V81.7539Z" fill="#307361"/>
<path fill-rule="evenodd" clip-rule="evenodd" d="M35.4692 70.3294L34.5289 71.2764C34.4089 71.1837 34.3008 71.087 34.1808 71.0064C33.8141 70.7508 33.3854 70.6004 32.9404 70.5712C32.505 70.5268 32.0654 70.5905 31.66 70.7566C31.3197 70.8954 31.0173 71.1141 30.7778 71.3945C30.5384 71.6748 30.369 72.0088 30.2837 72.3684C30.1062 72.9799 30.1286 73.6325 30.3477 74.2301C30.4595 74.5828 30.659 74.9008 30.9272 75.154C31.1954 75.4072 31.5234 75.5872 31.8801 75.6768C32.3125 75.8086 32.7704 75.8312 33.2135 75.7427C33.6566 75.6541 34.0712 75.4571 34.4209 75.169L34.5049 75.0965L34.5769 75.024L35.5652 76.0233C35.4532 76.12 35.3491 76.2208 35.2411 76.3094C34.7037 76.7486 34.0551 77.0277 33.3686 77.1154C32.5683 77.242 31.7489 77.1501 30.9959 76.8494C30.4519 76.6277 29.9728 76.2702 29.6039 75.8106C29.235 75.3509 28.9884 74.8043 28.8873 74.2221C28.6783 73.3433 28.7397 72.4214 29.0633 71.5786C29.2633 71.0101 29.6042 70.5025 30.0538 70.104C30.5034 69.7055 31.0467 69.4294 31.6321 69.3019C32.4429 69.0887 33.2994 69.1323 34.0848 69.4268C34.579 69.6217 35.0284 69.9166 35.4051 70.2932C35.428 70.3024 35.4495 70.3146 35.4692 70.3294V70.3294Z" fill="#307361"/>
<path fill-rule="evenodd" clip-rule="evenodd" d="M58.9392 74.7497H54.8581C54.8836 74.977 54.9755 75.1915 55.1221 75.3662C55.3591 75.6385 55.689 75.8111 56.0464 75.8498C56.5831 75.9348 57.1323 75.8279 57.5989 75.5475L57.7109 75.471L57.8109 75.3864C58.083 75.6684 58.3511 75.9545 58.6112 76.2487C58.5711 76.285 58.5151 76.3454 58.4511 76.3978C58.0493 76.7332 57.5658 76.9544 57.0507 77.0385C56.3604 77.1831 55.6427 77.1114 54.9941 76.833C54.6475 76.6803 54.3411 76.4481 54.0993 76.1549C53.8576 75.8618 53.6872 75.5158 53.6017 75.1446C53.4066 74.4569 53.4404 73.7238 53.6977 73.0572C53.8404 72.6675 54.0783 72.3203 54.3895 72.0477C54.7008 71.7751 55.0752 71.586 55.4783 71.4978C56.0866 71.3415 56.7266 71.3639 57.3228 71.5622C57.7208 71.6912 58.0756 71.9284 58.3481 72.2477C58.6207 72.567 58.8003 72.9559 58.8672 73.3715C58.9532 73.7888 58.9774 74.2165 58.9392 74.6409C58.9392 74.6771 58.9392 74.7094 58.9392 74.7497ZM54.8781 73.6214H57.6789C57.6619 73.4401 57.5994 73.2662 57.4972 73.116C57.395 72.9659 57.2565 72.8444 57.0947 72.7631C56.7908 72.6181 56.4517 72.5649 56.1184 72.6099C55.8438 72.6303 55.5803 72.7281 55.3582 72.892C55.1169 73.0728 54.9423 73.3295 54.8621 73.6214H54.8781Z" fill="#307361"/>
<path fill-rule="evenodd" clip-rule="evenodd" d="M35.8822 74.3756C35.8626 73.9612 35.931 73.5474 36.0828 73.1617C36.2346 72.776 36.4663 72.4274 36.7624 72.1391C37.1486 71.7749 37.6411 71.5459 38.1668 71.4863C38.7397 71.3958 39.3264 71.48 39.8513 71.7281C40.2292 71.9092 40.5579 72.1797 40.8095 72.5165C41.061 72.8533 41.2279 73.2465 41.2958 73.6623C41.445 74.3601 41.3429 75.0886 41.0077 75.7174C40.8199 76.0803 40.5466 76.3913 40.2118 76.6232C39.877 76.855 39.4908 77.0006 39.0871 77.0472C38.5302 77.142 37.9579 77.0734 37.4386 76.8498C37.0497 76.6795 36.7096 76.4135 36.4495 76.0762C36.1894 75.7389 36.0177 75.3412 35.9502 74.9196C35.9062 74.706 35.8982 74.5005 35.8822 74.3756ZM38.611 75.8383H38.791C38.9579 75.8259 39.1206 75.7795 39.2691 75.7019C39.4177 75.6244 39.549 75.5172 39.6553 75.387C39.832 75.1673 39.9524 74.9073 40.0061 74.6298C40.0599 74.3523 40.0452 74.0657 39.9634 73.7953C39.8959 73.4881 39.7286 73.2123 39.488 73.0116C39.2474 72.8109 38.9472 72.6967 38.635 72.6871C38.3944 72.6728 38.1547 72.7264 37.9427 72.8417C37.7306 72.957 37.5547 73.1295 37.4346 73.3399C37.2207 73.7037 37.14 74.1314 37.2066 74.5488C37.2282 74.9055 37.387 75.2396 37.6492 75.4803C37.9114 75.7211 38.2564 75.8495 38.611 75.8383Z" fill="#307361"/>
<path fill-rule="evenodd" clip-rule="evenodd" d="M43.4953 76.958H42.2109V71.5583H43.2792C43.3473 71.5583 43.3713 71.5583 43.3793 71.647C43.3793 71.8525 43.4273 72.0499 43.4513 72.2675C43.5953 72.1507 43.7274 72.0298 43.8514 71.921C44.1438 71.7001 44.487 71.5573 44.849 71.5061C45.211 71.4548 45.58 71.4968 45.9215 71.6279C46.2631 71.7591 46.5661 71.9752 46.8023 72.2562C47.0385 72.5371 47.2003 72.8737 47.2724 73.2346C47.3445 73.5287 47.3808 73.8304 47.3804 74.1333V76.954H46.072V76.8331C46.072 75.9345 46.072 75.0319 46.072 74.1333C46.0871 73.7756 45.9813 73.4233 45.772 73.1339C45.6017 72.9144 45.3536 72.77 45.0798 72.7309C44.9051 72.6935 44.7245 72.694 44.55 72.7322C44.3754 72.7704 44.211 72.8455 44.0675 72.9526C43.7671 73.1836 43.5677 73.5232 43.5113 73.8995C43.4954 74.0144 43.4873 74.1301 43.4873 74.2461C43.4873 75.1125 43.4873 75.9828 43.4873 76.8492L43.4953 76.958Z" fill="#307361"/>
<path fill-rule="evenodd" clip-rule="evenodd" d="M52.6682 72.1225L51.936 73.009C51.856 72.9485 51.788 72.8881 51.712 72.8357C51.3806 72.6127 50.9853 72.5064 50.5876 72.5335C50.3901 72.5311 50.1937 72.5639 50.0075 72.6302C49.9033 72.6603 49.8137 72.7278 49.7555 72.8198C49.6973 72.9118 49.6745 73.0221 49.6914 73.1299C49.7053 73.2175 49.7429 73.2996 49.8001 73.3671C49.8573 73.4346 49.9318 73.485 50.0155 73.5127C50.2091 73.5862 50.413 73.6283 50.6196 73.6376C51.0485 73.6498 51.4732 73.7259 51.88 73.8633C52.2235 73.973 52.5156 74.2049 52.7018 74.5155C52.8881 74.8262 52.9558 75.1945 52.8923 75.5517C52.8652 75.8617 52.7494 76.1573 52.5592 76.4025C52.3689 76.6478 52.1121 76.8323 51.82 76.9339C51.4732 77.0756 51.1019 77.1468 50.7277 77.1434C50.3165 77.1619 49.905 77.1171 49.5073 77.0104C49.0403 76.8651 48.6168 76.6047 48.275 76.2529L48.2109 76.1803L48.8551 75.2213C49.0286 75.4047 49.2367 75.5513 49.4673 75.6524C49.826 75.8435 50.2223 75.9522 50.6276 75.9708C50.7858 75.9896 50.9461 75.9706 51.0956 75.9153C51.2451 75.8599 51.3795 75.7699 51.4879 75.6524C51.5344 75.6041 51.5693 75.5457 51.5898 75.4817C51.6104 75.4176 51.616 75.3497 51.6064 75.2831C51.5967 75.2165 51.572 75.153 51.5341 75.0976C51.4962 75.0422 51.4462 74.9962 51.3879 74.9634C51.2287 74.8872 51.0585 74.8368 50.8837 74.8143C50.5516 74.7579 50.2115 74.7417 49.8834 74.6732C49.5209 74.6086 49.1808 74.4518 48.8951 74.2179C48.7201 74.0728 48.583 73.8868 48.4958 73.6761C48.4087 73.4653 48.374 73.2363 48.395 73.009C48.4109 72.7058 48.5171 72.4145 48.6998 72.1729C48.8825 71.9314 49.1333 71.751 49.4193 71.655C50.0256 71.4138 50.6879 71.3523 51.3278 71.4777C51.8011 71.5511 52.243 71.7611 52.6002 72.0822L52.6682 72.1225Z" fill="#307361"/>
<path fill-rule="evenodd" clip-rule="evenodd" d="M63.6712 69.3215V76.9778H62.3828V69.3215H63.6712Z" fill="#307361"/>
<path fill-rule="evenodd" clip-rule="evenodd" d="M61.2143 76.9538H59.9219V71.5581H61.2143V76.9538Z" fill="#307361"/>
<path fill-rule="evenodd" clip-rule="evenodd" d="M61.3363 70.0671C61.3426 70.1704 61.3272 70.2738 61.2912 70.3707C61.2552 70.4676 61.1993 70.5558 61.1272 70.6295C61.0551 70.7033 60.9685 70.7609 60.8728 70.7987C60.7772 70.8365 60.6747 70.8535 60.5721 70.8488C60.3753 70.8346 60.1912 70.7459 60.0568 70.6004C59.9224 70.455 59.8477 70.2637 59.8477 70.0651C59.8477 69.8664 59.9224 69.6751 60.0568 69.5297C60.1912 69.3843 60.3753 69.2955 60.5721 69.2813C60.675 69.2765 60.7779 69.2937 60.8738 69.3317C60.9698 69.3698 61.0566 69.4278 61.1288 69.5019C61.2009 69.5761 61.2567 69.6648 61.2925 69.7622C61.3282 69.8596 61.3432 69.9635 61.3363 70.0671V70.0671Z" fill="#307361"/>
<path fill-rule="evenodd" clip-rule="evenodd" d="M73.518 100.052H73.0299V99.9468C73.0299 98.9958 73.0299 98.0489 73.0299 97.1019C73.0382 96.6916 72.8957 96.2926 72.6298 95.9817C72.4237 95.7386 72.1414 95.5736 71.8295 95.5142C71.5921 95.4568 71.3445 95.4571 71.1072 95.5153C70.8699 95.5735 70.6498 95.6878 70.4651 95.8487C70.1943 96.0914 70.0208 96.4252 69.977 96.7876C69.9576 96.9061 69.9482 97.0261 69.949 97.1462V100.052H69.4648V95.0992H69.917V95.8769C70.013 95.752 70.089 95.6392 70.1811 95.5384C70.3239 95.3776 70.4974 95.2472 70.6912 95.1552C70.8851 95.0631 71.0953 95.0112 71.3094 95.0025C71.5739 94.9739 71.8414 94.9987 72.0963 95.0755C72.3512 95.1523 72.5883 95.2795 72.7938 95.4498C72.9898 95.6324 73.1429 95.8568 73.2419 96.1066L73.2699 96.1791C73.2814 96.1643 73.2908 96.1481 73.298 96.1308C73.4426 95.7852 73.688 95.492 74.0016 95.2899C74.3152 95.0877 74.6823 94.9861 75.0545 94.9984C75.5086 94.9793 75.9548 95.122 76.3148 95.4014C76.5153 95.5543 76.6834 95.7462 76.8092 95.9655C76.9349 96.1849 77.0158 96.4274 77.047 96.6788C77.0658 96.8272 77.0765 96.9765 77.079 97.1261V100.048H76.5909V99.9428C76.5909 98.9797 76.5909 98.0126 76.5909 97.0495C76.6033 96.6397 76.4602 96.2406 76.1908 95.9333C75.9617 95.6828 75.6506 95.524 75.3145 95.486C75.0453 95.4439 74.7699 95.4716 74.5143 95.5666C74.2612 95.6615 74.0387 95.8243 73.8708 96.0373C73.7029 96.2504 73.5962 96.5057 73.562 96.7755C73.5387 96.9085 73.528 97.0434 73.53 97.1785C73.53 98.108 73.53 99.0361 73.53 99.963L73.518 100.052Z" fill="#307361"/>
<path fill-rule="evenodd" clip-rule="evenodd" d="M82.3402 98.8834L82.6803 99.1654C82.4998 99.4095 82.2692 99.6115 82.0042 99.7578C81.4962 100.042 80.9142 100.165 80.3357 100.108C79.7616 100.069 79.2226 99.8162 78.8232 99.3992C78.4527 99.0079 78.223 98.5028 78.171 97.9646C78.0789 97.3575 78.1976 96.7369 78.5071 96.2077C78.6731 95.9099 78.9029 95.6531 79.1797 95.4558C79.4566 95.2586 79.7735 95.1259 80.1076 95.0673C80.4645 94.9876 80.8345 94.987 81.1917 95.0656C81.5489 95.1443 81.8848 95.3002 82.1762 95.5227C82.5809 95.8409 82.8511 96.3015 82.9324 96.8121C82.9878 97.1136 83.0052 97.421 82.9844 97.7269C82.9844 97.7994 82.9484 97.8115 82.8844 97.8115H78.6352C78.6632 97.9404 78.6752 98.0653 78.7112 98.1822C78.79 98.55 78.9808 98.8839 79.2569 99.1374C79.533 99.3909 79.8807 99.5515 80.2516 99.5966C80.5714 99.6541 80.8995 99.6429 81.2147 99.5638C81.5298 99.4846 81.8247 99.3392 82.0802 99.1372C82.1718 99.0579 82.2586 98.9731 82.3402 98.8834V98.8834ZM82.5523 97.3602C82.5283 97.1869 82.5163 97.0217 82.4803 96.8565C82.4428 96.6355 82.3587 96.4251 82.2338 96.2396C82.1089 96.054 81.946 95.8975 81.7561 95.7806C81.4941 95.6201 81.2008 95.5187 80.8962 95.4832C80.5916 95.4477 80.283 95.479 79.9916 95.575C79.6747 95.6691 79.3889 95.8475 79.1642 96.0915C78.9396 96.3355 78.7845 96.6359 78.7152 96.9612C78.6832 97.0902 78.6632 97.2232 78.6352 97.3642L82.5523 97.3602Z" fill="#307361"/>
<path fill-rule="evenodd" clip-rule="evenodd" d="M49.7546 100.12C49.1807 100.129 48.6233 99.9267 48.1861 99.5522C47.7915 99.2153 47.5221 98.7536 47.4219 98.2425C47.2731 97.6161 47.338 96.9576 47.606 96.3728C47.7504 96.0434 47.971 95.7537 48.2495 95.528C48.528 95.3022 48.8561 95.147 49.2064 95.0752C49.5787 94.978 49.9685 94.97 50.3444 95.0518C50.7203 95.1337 51.0719 95.3032 51.371 95.5467C51.8043 95.8997 52.0981 96.3971 52.1993 96.949C52.3273 97.5233 52.2799 98.1231 52.0632 98.6697C51.9506 98.9557 51.781 99.2155 51.5649 99.4331C51.3489 99.6507 51.0909 99.8215 50.8069 99.935C50.4722 100.068 50.1142 100.131 49.7546 100.12V100.12ZM49.8066 95.4903C49.7253 95.4842 49.6438 95.4842 49.5625 95.4903C49.2839 95.5187 49.0151 95.6099 48.7762 95.7571C48.5373 95.9043 48.3342 96.1037 48.1821 96.3405C48.0144 96.6058 47.9026 96.9029 47.8537 97.2134C47.8049 97.524 47.82 97.8414 47.898 98.1458C47.9788 98.5731 48.214 98.955 48.5582 99.2177C48.8217 99.4206 49.1305 99.5553 49.4576 99.6101C49.7848 99.6649 50.1203 99.6381 50.4348 99.532C50.7246 99.4522 50.9895 99.2993 51.2044 99.0878C51.4194 98.8763 51.5772 98.6131 51.6631 98.3231C51.7762 97.9751 51.8064 97.6051 51.7512 97.2432C51.6994 96.7414 51.4589 96.2785 51.079 95.9497C50.7308 95.6348 50.274 95.4699 49.8066 95.4903V95.4903Z" fill="#307361"/>
<path fill-rule="evenodd" clip-rule="evenodd" d="M57.2091 95.0913H57.6972V100.048H57.2251V99.1935C57.1651 99.2781 57.121 99.3426 57.073 99.403C56.9057 99.6182 56.6936 99.7939 56.4517 99.9178C56.2098 100.042 55.9439 100.111 55.6726 100.12C55.2769 100.159 54.8777 100.097 54.5123 99.939C54.2256 99.8193 53.9734 99.6289 53.779 99.3852C53.5846 99.1415 53.4543 98.8525 53.4 98.5447C53.3567 98.3421 53.3352 98.1354 53.336 97.9282C53.336 97.0175 53.336 96.1068 53.336 95.1961V95.0913H53.8241V95.188C53.8241 96.1148 53.8241 97.0376 53.8241 97.9645C53.8297 98.1533 53.8552 98.3411 53.9001 98.5246C53.964 98.8014 54.11 99.0522 54.3186 99.2436C54.5273 99.4351 54.7888 99.5581 55.0684 99.5965C55.4105 99.678 55.7686 99.6598 56.1008 99.5441C56.3751 99.4461 56.6185 99.276 56.8056 99.0513C56.9928 98.8267 57.1169 98.5558 57.1651 98.2667C57.1944 98.1236 57.2078 97.9776 57.2051 97.8315C57.2051 96.953 57.2051 96.0745 57.2051 95.1961L57.2091 95.0913Z" fill="#307361"/>
<path fill-rule="evenodd" clip-rule="evenodd" d="M64.677 98.8113C64.737 98.8839 64.7971 98.9604 64.8611 99.0249C65.1282 99.2973 65.4668 99.4874 65.8374 99.5729C66.3196 99.6963 66.8272 99.6753 67.2978 99.5125C67.4396 99.4729 67.5694 99.3983 67.6756 99.2957C67.7818 99.193 67.8609 99.0653 67.906 98.9242C67.9501 98.7769 67.9464 98.6192 67.8953 98.4742C67.8442 98.3292 67.7484 98.2045 67.6219 98.1182C67.3896 97.9828 67.1346 97.8913 66.8697 97.8482C66.4175 97.7556 65.9614 97.6709 65.5093 97.5702C65.2634 97.5145 65.0352 97.3982 64.8451 97.2317C64.7393 97.1402 64.654 97.0272 64.5947 96.9001C64.5354 96.773 64.5034 96.6347 64.501 96.4943C64.4808 96.2176 64.5529 95.9421 64.7058 95.7115C64.8587 95.4808 65.0838 95.3081 65.3452 95.2209C65.787 95.0553 66.261 94.996 66.7296 95.0476C67.2177 95.0799 67.6849 95.2597 68.07 95.5634L68.218 95.6964L67.922 96.0228C67.8459 95.9664 67.7779 95.91 67.7019 95.8576C67.4161 95.6544 67.079 95.537 66.7296 95.5191C66.471 95.4935 66.2103 95.5003 65.9534 95.5393C65.6915 95.5733 65.4431 95.6761 65.2332 95.8375C65.1466 95.9036 65.0772 95.9899 65.031 96.089C64.9848 96.188 64.9632 96.2969 64.9679 96.4062C64.9726 96.5156 65.0036 96.6221 65.0581 96.7168C65.1127 96.8114 65.1893 96.8913 65.2812 96.9496C65.527 97.0972 65.7987 97.1957 66.0814 97.2398L67.4058 97.5138C67.626 97.574 67.8326 97.6766 68.014 97.816C68.1285 97.9 68.2235 98.008 68.2926 98.1325C68.3616 98.257 68.4031 98.3951 68.4141 98.5373C68.4491 98.7512 68.4284 98.9705 68.3541 99.1739C68.2797 99.3774 68.1543 99.5579 67.99 99.6979C67.7998 99.8533 67.5788 99.966 67.3418 100.028C66.6505 100.231 65.9111 100.192 65.2452 99.9155C64.9134 99.785 64.6231 99.5663 64.405 99.2828C64.3825 99.2558 64.3637 99.226 64.3489 99.1941C64.343 99.1823 64.3398 99.1692 64.3398 99.1559C64.3398 99.1426 64.343 99.1294 64.3489 99.1176L64.677 98.8113Z" fill="#307361"/>
<path fill-rule="evenodd" clip-rule="evenodd" d="M42.5312 93.5396V93.0359H47.8928C47.9808 93.0359 48.0048 93.0641 47.9968 93.1487C47.9908 93.2494 47.9908 93.3503 47.9968 93.4509C47.9968 93.5194 47.9768 93.5356 47.9128 93.5356H45.5321V100.047H45V93.5396H42.5312Z" fill="#307361"/>
<path fill-rule="evenodd" clip-rule="evenodd" d="M59.4336 100.048H58.9375V95.0996H59.3976V95.9055H59.4176C59.55 95.6554 59.7438 95.4437 59.9806 95.2906C60.2173 95.1375 60.4892 95.0482 60.77 95.0311C61.2149 94.9733 61.6657 95.0761 62.0424 95.3213C61.9704 95.4502 61.9024 95.5832 61.8383 95.7041C61.6737 95.6367 61.5054 95.5789 61.3342 95.5308C60.9212 95.4498 60.4931 95.5359 60.1426 95.7705C59.7922 96.005 59.5475 96.3691 59.4617 96.784C59.4356 96.9099 59.4235 97.0383 59.4256 97.1668C59.4256 98.0856 59.4256 99.0017 59.4256 99.915L59.4336 100.048Z" fill="#307361"/>
<path fill-rule="evenodd" clip-rule="evenodd" d="M63.2536 100.052H62.7734V95.0715H63.2096C63.2096 95.0715 63.2456 95.0957 63.2496 95.1118C63.2537 95.1318 63.2537 95.1523 63.2496 95.1723V100.048L63.2536 100.052Z" fill="#307361"/>
<path fill-rule="evenodd" clip-rule="evenodd" d="M63.4096 93.4962C63.4096 93.5759 63.3861 93.6538 63.3422 93.7201C63.2982 93.7864 63.2357 93.838 63.1626 93.8685C63.0895 93.899 63.0091 93.907 62.9314 93.8915C62.8538 93.8759 62.7825 93.8375 62.7266 93.7812C62.6706 93.7248 62.6325 93.653 62.6171 93.5748C62.6016 93.4967 62.6096 93.4157 62.6398 93.342C62.6701 93.2684 62.7214 93.2054 62.7872 93.1612C62.853 93.1169 62.9304 93.0933 63.0095 93.0933C63.1156 93.0933 63.2174 93.1357 63.2924 93.2113C63.3675 93.2869 63.4096 93.3894 63.4096 93.4962Z" fill="#307361"/>
<path fill-rule="evenodd" clip-rule="evenodd" d="M33.7707 98.9877C33.6627 99.1287 33.5747 99.2617 33.4666 99.3906C33.1123 99.7858 32.6274 100.038 32.1022 100.1C31.6502 100.171 31.1875 100.114 30.7659 99.9346C30.4487 99.8079 30.166 99.607 29.9413 99.3484C29.7165 99.0899 29.5562 98.7811 29.4735 98.4477C29.2764 97.7844 29.3117 97.0731 29.5735 96.4329C29.7046 96.096 29.9177 95.7976 30.1932 95.5653C30.4686 95.3329 30.7976 95.174 31.15 95.1031C31.6499 94.9824 32.1739 95.0104 32.6584 95.1837C33.0986 95.3428 33.4695 95.6522 33.7067 96.0581L33.7467 96.1226V93.0359H34.2229V100.043H33.7707V98.9877ZM29.8176 97.5572C29.8416 97.7465 29.8576 97.94 29.8936 98.1253C29.9593 98.5391 30.1727 98.9145 30.4938 99.1811C30.7303 99.3758 31.008 99.5134 31.3056 99.5832C31.6031 99.6531 31.9126 99.6534 32.2103 99.5841C32.4495 99.5446 32.678 99.4554 32.8812 99.3222C33.0844 99.189 33.2579 99.0147 33.3906 98.8104C33.5557 98.5613 33.6695 98.2814 33.7252 97.9872C33.7809 97.693 33.7773 97.3905 33.7147 97.0978C33.6448 96.6418 33.4113 96.2275 33.0585 95.9332C32.8201 95.7361 32.5397 95.5971 32.2392 95.5272C31.9386 95.4573 31.6261 95.4584 31.326 95.5302C31.0773 95.5732 30.841 95.6706 30.6336 95.8154C30.4262 95.9602 30.2529 96.1489 30.1257 96.3684C29.9255 96.7323 29.8196 97.1411 29.8176 97.5572V97.5572Z" fill="#307361"/>
<path fill-rule="evenodd" clip-rule="evenodd" d="M39.3694 95.0752H39.8495V100.032H39.3774V99.1774C39.3134 99.266 39.2694 99.3345 39.2174 99.399C38.9954 99.6942 38.6833 99.908 38.3291 100.007C37.9865 100.121 37.6222 100.151 37.2656 100.097C36.9091 100.042 36.5702 99.9039 36.2765 99.6932C36.0748 99.5443 35.9053 99.3557 35.778 99.1389C35.6508 98.9222 35.5686 98.6816 35.5363 98.4319C35.5043 98.2456 35.4882 98.0568 35.4883 97.8677C35.4883 96.9732 35.4883 96.0745 35.4883 95.18V95.0752H35.9764V95.1719C35.9764 96.0947 35.9764 97.0175 35.9764 97.9403C35.9654 98.1709 36.0012 98.4013 36.0817 98.6175C36.1622 98.8337 36.2857 99.0311 36.4446 99.1975C36.6504 99.3938 36.9093 99.5243 37.1888 99.5723C37.5435 99.6593 37.9155 99.6426 38.2611 99.5239C38.5343 99.4318 38.7778 99.2672 38.9658 99.0473C39.1539 98.8274 39.2795 98.5605 39.3294 98.2747C39.3636 98.12 39.3797 97.9618 39.3774 97.8033C39.3774 96.9355 39.3774 96.0692 39.3774 95.2041L39.3694 95.0752Z" fill="#307361"/>
<path d="M35.1828 124.693L39.392 122.517C40.131 122.944 40.9472 123.218 41.7927 123.323C43.3931 123.419 44.9936 122.219 45.1936 119.849C45.3937 117.48 43.4772 116.311 42.0848 116.13C40.9331 116.022 39.7719 116.167 38.6816 116.556C37.5913 116.945 36.5982 117.568 35.7709 118.382C33.9064 120.325 33.7343 123.133 33.9624 124.85C33.9624 124.85 34.2065 131.043 42.4729 131.934C48.8387 132.619 51.8556 127.123 51.8556 127.123C51.8556 127.123 51.3114 128.618 51.8556 127.171C51.8556 127.171 51.4315 128.098 52.8239 130.761C53.0119 131.112 48.9387 135.943 43.6452 136.189C39.46 136.383 32.1299 135.702 28.973 129.391C28.0247 127.493 27.6606 123.246 29.225 120.192C30.3814 117.939 33.2702 114.631 38.4477 113.341C44.0493 111.947 47.8224 113.744 49.3749 115.396C50.9273 117.048 51.4435 119.547 51.0273 121.074C50.6112 122.601 49.711 124.528 46.518 125.91C42.5769 127.634 36.3591 125.914 35.1828 124.693Z" fill="#307361"/>
<path d="M69.2732 111.395C66.9765 117.008 60.1106 120.998 57.2697 121.743L57.4378 124.782C59.5043 124.408 61.5147 123.769 63.4195 122.88C64.9991 122.161 66.511 121.301 67.9368 120.309C70.7816 123.71 74.1906 127.522 74.5667 128.896C74.9428 130.27 73.6585 131.668 71.8019 132.119C69.5657 132.654 67.2362 132.654 65 132.119C62.7993 131.511 60.9548 129.113 60.9548 129.113L56.4375 129.625C57.5398 131.799 59.2657 133.589 61.3909 134.763C61.3909 134.763 65.036 136.891 71.886 135.936C71.886 135.936 76.8394 135.424 79.8883 132.414C81.6288 130.705 81.2847 128.444 80.5445 126.837C79.8042 125.229 74.9428 118.878 74.9428 118.878C72.2981 115.413 75.9391 111.258 75.9391 111.258C73.6625 111.858 69.2292 111.375 69.2292 111.375" fill="#307361"/>
<path d="M64.0659 147.755C64.1785 147.533 64.2374 147.287 64.2379 147.038C64.2455 146.771 64.1899 146.506 64.0758 146.265C63.9617 146.024 63.7924 145.814 63.5817 145.652C63.1145 145.299 62.541 145.118 61.9573 145.14H61.157V144.789C61.1642 144.595 61.2207 144.407 61.3211 144.241C61.3891 144.159 61.477 144.095 61.5765 144.056C61.6759 144.017 61.7836 144.005 61.8892 144.02H63.3016L63.7618 142.839H61.8892C61.3394 142.808 60.7982 142.987 60.3728 143.339C60.1877 143.512 60.0425 143.724 59.9471 143.96C59.8518 144.196 59.8086 144.45 59.8206 144.705V145.732C59.8192 145.814 59.8361 145.894 59.87 145.968C59.904 146.042 59.9541 146.108 60.0167 146.159C60.1489 146.27 60.3171 146.327 60.4888 146.321H61.9653C62.2211 146.303 62.4748 146.377 62.6815 146.53C62.7585 146.589 62.8197 146.666 62.8595 146.755C62.8993 146.843 62.9165 146.941 62.9095 147.038C62.914 147.158 62.8834 147.277 62.8215 147.38C62.7645 147.469 62.6878 147.544 62.5974 147.598C62.502 147.651 62.3997 147.69 62.2934 147.715C62.1858 147.74 62.0758 147.754 61.9653 147.755H56.6437C56.5376 147.764 56.4309 147.746 56.3336 147.703C56.2363 147.659 56.1516 147.591 56.0876 147.505C55.9691 147.329 55.9063 147.121 55.9075 146.909V146.454H57.9681C58.1403 146.459 58.3084 146.4 58.4402 146.288C58.5033 146.237 58.5537 146.172 58.5877 146.098C58.6217 146.024 58.6383 145.943 58.6363 145.861V144.753C58.637 144.488 58.5938 144.226 58.5083 143.975C58.4237 143.727 58.2873 143.501 58.1081 143.31C57.9065 143.119 57.6687 142.97 57.409 142.872C57.1492 142.775 56.8727 142.73 56.5957 142.742C56.3393 142.74 56.0846 142.783 55.8435 142.871C55.6104 142.952 55.3945 143.076 55.2073 143.238C55.0125 143.394 54.8518 143.589 54.7352 143.81C54.6186 144.047 54.5597 144.308 54.5631 144.572V146.909C54.5635 147.161 54.611 147.412 54.7032 147.646C54.7032 147.679 54.7352 147.707 54.7472 147.739H53.9069C53.8051 147.743 53.7035 147.725 53.6095 147.685C53.5155 147.645 53.4312 147.585 53.3628 147.509C53.2144 147.333 53.1385 147.107 53.1507 146.877V144.62C53.1519 144.371 53.1015 144.124 53.0027 143.895C52.9031 143.668 52.7603 143.462 52.5825 143.29C52.3933 143.116 52.1735 142.98 51.9344 142.887C51.68 142.785 51.4082 142.733 51.1341 142.734C50.5864 142.714 50.0517 142.904 49.6377 143.266C49.4423 143.445 49.287 143.663 49.1822 143.907C49.0773 144.151 49.0253 144.415 49.0295 144.68V147.747H47.7892V146.885C47.7839 146.45 47.644 146.027 47.3891 145.676C47.1464 145.331 46.7883 145.087 46.3808 144.987L48.2373 142.823H46.7048L44.7643 144.878V139.623H43.4279V147.755H40.227C40.1215 147.764 40.0154 147.746 39.9188 147.702C39.8222 147.658 39.7383 147.591 39.6748 147.505C39.5563 147.329 39.4936 147.121 39.4948 146.909V146.454H41.5554C41.7276 146.459 41.8957 146.4 42.0275 146.288C42.0901 146.237 42.1402 146.171 42.1742 146.097C42.2081 146.023 42.225 145.943 42.2236 145.861V144.753C42.224 144.488 42.1807 144.226 42.0955 143.975C42.0107 143.728 41.8742 143.501 41.6954 143.31C41.4943 143.119 41.2573 142.97 40.9982 142.873C40.7392 142.775 40.4633 142.731 40.187 142.742C39.9306 142.739 39.6758 142.783 39.4348 142.871C39.2007 142.952 38.9836 143.077 38.7946 143.238C38.6076 143.402 38.4552 143.602 38.3464 143.826C38.2299 144.063 38.1709 144.324 38.1744 144.588V146.925C38.1732 147.178 38.2208 147.428 38.3144 147.662V147.662C37.9971 147.656 37.6815 147.613 37.3742 147.533C37.2679 147.429 37.1851 147.304 37.1313 147.165C37.0775 147.026 37.0538 146.877 37.0621 146.728V142.617C37.0638 142.35 37.0021 142.086 36.882 141.848C36.7628 141.613 36.595 141.407 36.3899 141.243C36.0632 140.985 35.6777 140.813 35.2682 140.742C34.8588 140.672 34.4385 140.706 34.0452 140.84C33.7979 140.908 33.5694 141.032 33.377 141.203C33.1812 141.056 32.962 140.945 32.7288 140.872C32.2347 140.702 31.7021 140.681 31.1964 140.812C31.0033 140.857 30.8183 140.931 30.6482 141.034C30.5188 140.822 30.3657 140.626 30.1921 140.449C29.9968 140.247 29.7838 140.062 29.5559 139.897C29.1759 139.631 28.7594 139.422 28.3195 139.277L28.1875 139.232V140.498L28.2475 140.526C28.4135 140.604 28.5727 140.696 28.7237 140.8C29.0293 141.001 29.2863 141.268 29.4759 141.582C29.664 141.896 29.761 142.258 29.756 142.625V148.932H31.0923V142.662C31.0937 142.465 31.1663 142.276 31.2964 142.13C31.3739 142.047 31.4688 141.984 31.5741 141.943C31.6794 141.903 31.7923 141.887 31.9046 141.896C32.1227 141.894 32.3347 141.968 32.5048 142.106C32.5826 142.165 32.6454 142.241 32.6878 142.33C32.7303 142.418 32.7512 142.515 32.7488 142.613V148.936H34.0892V142.662C34.0937 142.466 34.1659 142.278 34.2933 142.13C34.3638 142.044 34.4536 141.977 34.5552 141.933C34.6569 141.89 34.7673 141.872 34.8774 141.88C35.1009 141.87 35.3204 141.943 35.4936 142.085C35.569 142.148 35.6294 142.227 35.6703 142.316C35.7111 142.405 35.7315 142.503 35.7297 142.601V146.719C35.723 147.048 35.7872 147.374 35.9177 147.675C36.0374 147.937 36.2105 148.172 36.4259 148.364C36.6442 148.543 36.8939 148.68 37.1621 148.767C37.4542 148.867 40.0189 148.912 40.191 148.912H44.7603V146.792C44.7625 146.694 44.7854 146.597 44.8275 146.508C44.8695 146.419 44.9298 146.34 45.0044 146.276C45.0839 146.199 45.1779 146.138 45.281 146.098C45.3841 146.058 45.4941 146.039 45.6045 146.043C45.7151 146.037 45.8257 146.054 45.9296 146.093C46.0334 146.132 46.1283 146.191 46.2087 146.268C46.2833 146.343 46.3417 146.432 46.3803 146.531C46.4189 146.629 46.4367 146.735 46.4328 146.84V148.36C46.4357 148.439 46.4571 148.517 46.4953 148.587C46.5335 148.657 46.5875 148.717 46.6528 148.763C46.7935 148.869 46.9651 148.925 47.141 148.924H50.3419V144.689C50.3405 144.494 50.4055 144.305 50.526 144.153C50.5981 144.07 50.6887 144.006 50.7904 143.966C50.892 143.926 51.0016 143.912 51.1101 143.923C51.285 143.925 51.4542 143.986 51.5903 144.096C51.6668 144.162 51.7265 144.245 51.7641 144.339C51.8017 144.433 51.8162 144.535 51.8063 144.636V146.941C51.8079 147.188 51.8554 147.433 51.9464 147.662C52.0379 147.901 52.1737 148.12 52.3465 148.307C52.5345 148.501 52.7589 148.656 53.0067 148.763C53.2863 148.881 53.5875 148.94 53.8909 148.936H55.3353V148.533C55.4584 148.628 55.5928 148.708 55.7355 148.771C56.0151 148.889 56.3162 148.948 56.6197 148.944H66.5506V147.763L64.0659 147.755ZM56.5757 143.923C56.6784 143.91 56.7827 143.923 56.8791 143.961C56.9755 143.999 57.061 144.061 57.1279 144.141C57.2436 144.323 57.3009 144.537 57.2919 144.753V145.273H55.8995V144.588C55.8903 144.493 55.9048 144.397 55.9419 144.309C55.9789 144.221 56.0373 144.144 56.1116 144.084C56.2457 143.983 56.408 143.926 56.5757 143.923V143.923ZM40.171 143.923C40.2737 143.91 40.378 143.923 40.4743 143.961C40.5707 143.999 40.6562 144.061 40.7231 144.141C40.8389 144.323 40.8961 144.537 40.8872 144.753V145.273H39.4948V144.588C39.4848 144.493 39.499 144.396 39.5361 144.308C39.5732 144.22 39.632 144.143 39.7068 144.084C39.8453 143.979 40.0138 143.923 40.187 143.923H40.171Z" fill="#307361"/>
<path d="M17.8746 149L17.7266 78.4816C17.7233 74.1619 18.9089 69.9258 21.1516 66.2436L22.3719 64.2288L22.66 134.606C22.6711 139.255 21.3074 143.802 18.7429 147.666L17.8746 149Z" fill="#307361"/>
<path d="M23.3281 63.676C23.3281 63.676 28.6497 63.5027 31.5465 61.5443C34.4433 59.5859 36.5319 56.8216 34.1072 54.8793C31.6825 52.937 27.2533 50.6764 29.2098 44.8052C29.2098 44.8052 22.3198 49.0484 26.8571 56.3461C26.8571 56.3461 29.4859 60.1541 23.3281 63.6598" fill="#307361"/>
<path d="M29.9729 44.2249C29.9729 44.2249 35.0144 44.4667 36.4228 44.1887C40.1158 43.4593 40.672 40.2477 40.3839 38.5472C40.1838 37.3383 34.6502 30.0487 33.3059 26.3535C31.5613 21.5461 32.3616 11.4196 37.279 6.73315C37.279 6.73315 21.5465 16.5574 30.6531 31.999C30.6531 31.999 35.9946 39.4458 34.0701 41.4606C31.6374 44.0114 29.9729 44.237 29.9729 44.237" fill="#307361"/>
<path d="M5.81767 83.8768L0 88.4626C0 88.4626 12.8437 110.763 54.1877 107.805L56.7844 106.028C56.7844 106.028 18.7974 109.687 5.81767 83.8647" fill="#307361"/>
<path d="M67.9396 24.5481L67.9316 29.295L72.6929 29.1741L69.432 32.4865L72.7409 35.7908L68.0396 35.6941L68.3877 40.5417L64.9187 37.0762L61.5897 40.4571L61.6697 35.6618L56.9844 35.823L60.3053 32.4502L57.2004 29.3474L61.6377 29.2628L61.6017 24.6569L64.7266 27.8323L67.9396 24.5481Z" fill="#307361"/>
<path d="M68.1216 29.114L68.1336 31.0483L69.654 32.4868L68.2296 33.9093V35.8717L66.2571 35.8919L64.9087 37.3426L63.4362 35.8758L61.4957 35.8798L61.4757 33.9012L60.0312 32.4586L61.4237 31.0684L61.4357 29.0778L63.3482 29.0657L64.7406 27.5989L66.2731 29.1261L68.1216 29.114Z" fill="#307361"/>
<path d="M74.1785 18.4197L74.3986 22.7112L78.7239 22.9329L73.5704 28.1674L68.957 28.2641L69.1171 23.5655L74.1785 18.4197Z" fill="#E8E5F3"/>
<path d="M50.7812 22.9606L55.0385 22.739L55.2626 18.387L60.4601 23.5771L60.5521 28.2233L55.8867 28.0581L50.7812 22.9606Z" fill="#E8E5F3"/>
<path d="M61.5234 15.711L64.6924 18.5881L67.9053 15.6707L67.9373 23.0409L64.7404 26.3935L61.5554 22.9562L61.5234 15.711Z" fill="#E8E5F3"/>
<path d="M48.0322 35.8714L50.889 32.6839L47.9922 29.4481L55.3103 29.4119L58.6393 32.6316L55.2263 35.8391L48.0322 35.8714Z" fill="#E8E5F3"/>
<path d="M55.0872 46.7998L54.9072 42.5083L50.5859 42.2423L55.7874 37.0562L60.4008 37.0078L60.1927 41.7064L55.0872 46.7998Z" fill="#E8E5F3"/>
<path d="M69.0364 14.6964L72.6734 14.229L74.3099 16.7798L68.9844 22.0626L69.0364 14.6964Z" fill="#307361"/>
<path d="M55.2695 16.9767L57.4702 14.0229L60.427 14.6193L60.475 22.1467L55.2695 16.9767Z" fill="#307361"/>
<path d="M46.9732 28.2439L46.457 24.589L48.9698 22.9087L54.2873 28.1996L46.9732 28.2439Z" fill="#307361"/>
<path d="M49.0372 42.1701L46.1523 39.8933L46.8085 36.9275L54.2867 37.0363L49.0372 42.1701Z" fill="#307361"/>
<path d="M65.969 7.56763C65.9657 6.24052 66.2454 4.92816 66.7893 3.71933C59.1871 -0.28613 47.8958 -3.15524 37.7969 6.61261C37.7969 6.61261 50.3125 -1.04371 66.2891 9.94915C66.078 9.17312 65.9704 8.37225 65.969 7.56763V7.56763Z" fill="#307361"/>
<path d="M56.3843 140.368L55.332 141.279L56.7965 142.492L57.8688 141.537L56.3843 140.368Z" fill="#307361"/>
</svg>
