<svg width="686" height="489" viewBox="0 0 686 489" fill="none" xmlns="http://www.w3.org/2000/svg">
<path d="M52.16 247.224C52.16 244.067 51.5627 241.464 50.368 239.416C49.216 237.325 47.4453 235.789 45.056 234.808C42.7093 233.784 39.744 233.272 36.16 233.272H28.992V262.264H37.248C40.3627 262.264 43.0293 261.731 45.248 260.664C47.4667 259.597 49.1733 257.955 50.368 255.736C51.5627 253.517 52.16 250.68 52.16 247.224ZM73.792 247.16C73.792 254.029 72.32 259.704 69.376 264.184C66.432 268.664 62.3147 272.013 57.024 274.232C51.7333 276.408 45.5893 277.496 38.592 277.496H28.992V307H8V218.296H35.904C47.936 218.296 57.2587 220.685 63.872 225.464C70.4853 230.243 73.792 237.475 73.792 247.16Z" fill="black"/>
<path d="M94 307V235.371C94 232.665 95.0578 230.066 96.9476 228.129V228.129C98.8994 226.128 101.576 225 104.371 225H108.5H117H120.88C123.551 225 126.148 225.883 128.267 227.511V227.511C131.251 229.805 133 233.356 133 237.12V247.14V307" stroke="black" stroke-width="20"/>
<path d="M397 92V20.371C397 17.6648 398.058 15.0657 399.948 13.1287V13.1287C401.899 11.1281 404.576 10 407.371 10H411.5H420H423.88C426.551 10 429.148 10.8828 431.267 12.5112V12.5112C434.251 14.8055 436 18.3561 436 22.1204V32.14V92" stroke="black" stroke-width="20"/>
<path d="M133 434V470.87C133 473.807 131.416 476.516 128.856 477.956V477.956C127.639 478.64 126.267 479 124.87 479H118.5H110H104.029C102.69 479 101.364 478.732 100.131 478.211V478.211C96.4152 476.644 94 473.004 94 468.971V466.85V434" stroke="black" stroke-width="20"/>
<path d="M436 252V288.87C436 291.807 434.416 294.516 431.856 295.956V295.956C430.639 296.64 429.267 297 427.87 297H421.5H413H407.029C405.69 297 404.364 296.732 403.131 296.211V296.211C399.415 294.644 397 291.004 397 286.971V284.85V252" stroke="black" stroke-width="20"/>
<path d="M219.872 247.24C219.872 251.464 219.083 255.155 217.504 258.312C215.925 261.469 213.792 264.136 211.104 266.312C208.416 268.488 205.408 270.237 202.08 271.56L225.312 309H201.568L182.368 275.08H176.416V309H155.424V220.296H183.328C195.403 220.296 204.512 222.493 210.656 226.888C216.8 231.283 219.872 238.067 219.872 247.24ZM198.24 247.24C198.24 242.973 196.981 239.88 194.464 237.96C191.989 235.997 188.299 235.016 183.392 235.016H176.416V260.68H184.224C188.789 260.68 192.267 259.613 194.656 257.48C197.045 255.347 198.24 251.933 198.24 247.24ZM273.518 236.36V309H252.526V236.36H227.63V220.296H299.438L297.262 236.36H273.518ZM336.38 235.272V258.76H367.484V273.8H336.38V309H315.324V220.296H373.628L371.452 235.272H336.38ZM466.904 309V220.296H487.896V292.424H526.36L524.184 309H466.904ZM598.95 220.296V235.656H580.646V293.576H598.95V309H541.35V293.576H559.654V235.656H541.35V220.296H598.95ZM682.42 264.584C682.42 273.971 681.076 282.163 678.388 289.16C675.7 296.115 671.711 301.533 666.42 305.416C661.172 309.256 654.665 311.176 646.9 311.176C639.177 311.176 632.671 309.299 627.38 305.544C622.089 301.747 618.1 296.371 615.412 289.416C612.724 282.461 611.38 274.184 611.38 264.584C611.38 255.197 612.724 247.027 615.412 240.072C618.1 233.117 622.089 227.72 627.38 223.88C632.671 219.997 639.177 218.056 646.9 218.056C654.665 218.056 661.172 219.933 666.42 223.688C671.711 227.443 675.7 232.797 678.388 239.752C681.076 246.707 682.42 254.984 682.42 264.584ZM660.916 264.584C660.916 253.661 659.828 245.725 657.652 240.776C655.476 235.827 651.892 233.352 646.9 233.352C641.908 233.352 638.324 235.848 636.148 240.84C633.972 245.789 632.884 253.704 632.884 264.584C632.884 275.507 633.993 283.443 636.212 288.392C638.431 293.341 641.993 295.816 646.9 295.816C652.02 295.816 655.625 293.32 657.716 288.328C659.849 283.293 660.916 275.379 660.916 264.584Z" fill="black"/>
<path d="M24.816 328.4V335.312L24.288 335.216C24.288 333.104 23.152 331.632 20.88 330.8C18.64 329.936 15.216 329.504 10.608 329.504V344.624C12.464 344.56 13.904 344.464 14.928 344.336C15.984 344.176 16.784 343.872 17.328 343.424C17.872 342.944 18.208 342.432 18.336 341.888C18.464 341.344 18.528 340.512 18.528 339.392L19.104 339.296V350.96L18.528 350.864C18.528 349.392 18.368 348.336 18.048 347.696C17.76 347.056 17.056 346.576 15.936 346.256C14.848 345.936 13.072 345.744 10.608 345.68V351.152C10.608 355.696 10.816 358.352 11.232 359.12C11.424 359.536 11.632 359.936 11.856 360.32C12.112 360.672 12.48 360.912 12.96 361.04C13.984 361.296 15.232 361.424 16.704 361.424L16.8 362H2.4L2.496 361.424C4.096 361.424 5.264 361.12 6 360.512C6.8 359.84 7.2 356.72 7.2 351.152V339.248C7.2 335.824 7.088 333.488 6.864 332.24C6.672 330.96 6.384 330.16 6 329.84C5.264 329.232 4.096 328.928 2.496 328.928L2.4 328.4H24.816ZM52.803 362C52.003 362 51.203 361.6 50.403 360.8C49.635 359.968 48.931 358.944 48.291 357.728C47.683 356.512 46.963 355.2 46.131 353.792C45.299 352.352 44.467 351.008 43.635 349.76C42.803 348.512 41.747 347.456 40.467 346.592C39.187 345.728 37.827 345.264 36.387 345.2V351.152C36.387 354.608 36.483 356.96 36.675 358.208C36.899 359.424 37.203 360.192 37.587 360.512C38.355 361.12 39.539 361.424 41.139 361.424L41.235 362H28.371L28.467 361.424C30.035 361.424 31.187 361.136 31.923 360.56C32.531 360.08 32.883 358.512 32.979 355.856C33.043 354.8 33.075 353.232 33.075 351.152V339.008C33.075 335.456 32.979 333.104 32.787 331.952C32.595 330.8 32.307 330.08 31.923 329.792C31.187 329.248 30.035 328.976 28.467 328.976L28.371 328.4H39.507C47.571 328.4 51.603 331.12 51.603 336.56C51.603 338.896 50.771 340.864 49.107 342.464C47.475 344.032 45.491 344.944 43.155 345.2C45.491 346.576 47.651 349.104 49.635 352.784C50.403 354.224 51.219 355.6 52.083 356.912C53.971 359.92 56.403 361.424 59.379 361.424L59.475 362H52.803ZM36.387 329.504V344.24H39.411C41.843 344.24 43.859 343.616 45.459 342.368C47.059 341.12 47.859 339.264 47.859 336.8C47.859 331.936 45.075 329.504 39.507 329.504H36.387ZM75.4778 327.968C80.6298 327.968 84.7418 329.552 87.8138 332.72C90.9178 335.856 92.4698 339.936 92.4698 344.96C92.4698 349.952 90.9658 354.128 87.9578 357.488C84.9818 360.816 80.9338 362.48 75.8138 362.48C70.6938 362.48 66.5658 360.8 63.4297 357.44C60.3257 354.08 58.7738 349.904 58.7738 344.912C58.7738 339.888 60.2618 335.808 63.2378 332.672C66.2458 329.536 70.3258 327.968 75.4778 327.968ZM75.7658 361.376C79.8618 361.376 82.9658 359.904 85.0778 356.96C87.2218 353.984 88.2938 350.08 88.2938 345.248C88.2938 340.416 87.1738 336.512 84.9338 333.536C82.6938 330.56 79.5258 329.072 75.4298 329.072C71.3658 329.072 68.2618 330.544 66.1178 333.488C64.0058 336.432 62.9498 340.336 62.9498 345.2C62.9498 350.032 64.0698 353.936 66.3098 356.912C68.5498 359.888 71.7018 361.376 75.7658 361.376ZM126.668 339.2V362.24H125.18L102.572 333.68V351.056C102.572 354.256 102.716 356.56 103.004 357.968C103.292 359.376 103.772 360.304 104.444 360.752C105.116 361.2 106.22 361.424 107.756 361.424L107.852 362H96.0439L96.1399 361.424C97.6759 361.424 98.7799 361.2 99.4519 360.752C100.124 360.304 100.604 359.376 100.892 357.968C101.212 356.56 101.372 354.256 101.372 351.056V339.2C101.372 336 101.212 333.712 100.892 332.336C100.604 330.928 100.124 330.016 99.4519 329.6C98.8119 329.152 97.7079 328.928 96.1399 328.928L96.0439 328.4H102.572L125.468 356.96V339.2C125.468 336.032 125.308 333.744 124.988 332.336C124.7 330.928 124.22 330.016 123.548 329.6C122.876 329.152 121.756 328.928 120.188 328.928L120.092 328.4H131.996L131.9 328.928C130.332 328.928 129.212 329.152 128.54 329.6C127.868 330.016 127.388 330.928 127.1 332.336C126.812 333.744 126.668 336.032 126.668 339.2ZM134.595 328.4H162.243V335.312L161.763 335.216C161.763 331.312 157.891 329.36 150.147 329.36V351.152C150.147 355.888 150.419 358.768 150.963 359.792C151.155 360.176 151.491 360.512 151.971 360.8C152.451 361.088 152.963 361.264 153.507 361.328C154.051 361.392 154.803 361.424 155.763 361.424L155.859 362H141.075L141.171 361.424C142.131 361.424 142.883 361.408 143.427 361.376C144.003 361.312 144.515 361.12 144.963 360.8C145.443 360.48 145.779 360.144 145.971 359.792C146.195 359.44 146.387 358.816 146.547 357.92C146.707 356.832 146.787 354.576 146.787 351.152V329.36C139.043 329.36 135.171 331.312 135.171 335.216L134.595 335.312V328.4ZM162.508 348.704V346.304H177.34V348.704H162.508ZM205.608 362H181.416L181.512 361.424C183.112 361.424 184.28 361.12 185.016 360.512C185.816 359.84 186.216 356.72 186.216 351.152V339.248C186.216 335.824 186.104 333.488 185.88 332.24C185.688 330.96 185.4 330.16 185.016 329.84C184.28 329.232 183.112 328.928 181.512 328.928L181.416 328.4H203.832V335.312L203.256 335.216C203.256 333.072 202.12 331.584 199.848 330.752C197.608 329.92 194.168 329.504 189.528 329.504V344.624C192.6 344.624 194.808 344.464 196.152 344.144C197.496 343.824 198.36 343.344 198.744 342.704C199.128 342.032 199.32 340.928 199.32 339.392L199.848 339.296V350.96L199.32 350.864C199.32 349.296 199.128 348.192 198.744 347.552C198.36 346.912 197.496 346.448 196.152 346.16C194.808 345.84 192.6 345.68 189.528 345.68V351.872C189.528 355.264 189.64 357.52 189.864 358.64C190.12 359.76 190.664 360.512 191.496 360.896C200.52 360.896 205.032 358.976 205.032 355.136L205.608 355.04V362ZM241.09 339.2V362.24H239.602L216.994 333.68V351.056C216.994 354.256 217.138 356.56 217.426 357.968C217.714 359.376 218.194 360.304 218.866 360.752C219.538 361.2 220.642 361.424 222.178 361.424L222.274 362H210.466L210.562 361.424C212.098 361.424 213.202 361.2 213.874 360.752C214.546 360.304 215.026 359.376 215.314 357.968C215.634 356.56 215.794 354.256 215.794 351.056V339.2C215.794 336 215.634 333.712 215.314 332.336C215.026 330.928 214.546 330.016 213.874 329.6C213.234 329.152 212.13 328.928 210.562 328.928L210.466 328.4H216.994L239.89 356.96V339.2C239.89 336.032 239.73 333.744 239.41 332.336C239.122 330.928 238.642 330.016 237.97 329.6C237.298 329.152 236.178 328.928 234.61 328.928L234.514 328.4H246.418L246.322 328.928C244.754 328.928 243.634 329.152 242.962 329.6C242.29 330.016 241.81 330.928 241.522 332.336C241.234 333.744 241.09 336.032 241.09 339.2ZM260.393 328.4C265.897 328.4 270.025 328.88 272.777 329.84C274.025 330.288 275.353 330.928 276.761 331.76C278.169 332.592 279.305 333.584 280.169 334.736C281.065 335.888 281.801 337.36 282.377 339.152C282.985 340.944 283.289 342.96 283.289 345.2C283.289 347.408 282.985 349.408 282.377 351.2C281.801 352.96 281.065 354.416 280.169 355.568C279.305 356.72 278.217 357.728 276.905 358.592C275.625 359.424 274.409 360.048 273.257 360.464C272.105 360.88 270.825 361.216 269.417 361.472C267.529 361.824 265.593 362 263.609 362H250.697L250.793 361.424C252.393 361.424 253.561 361.12 254.297 360.512C255.097 359.84 255.497 356.72 255.497 351.152V339.248C255.497 335.824 255.385 333.488 255.161 332.24C254.969 330.96 254.681 330.16 254.297 329.84C253.561 329.232 252.393 328.928 250.793 328.928L250.697 328.4H260.393ZM260.633 360.848C261.017 360.88 261.801 360.896 262.985 360.896C264.201 360.896 265.513 360.768 266.921 360.512C268.361 360.256 269.833 359.776 271.337 359.072C272.873 358.336 274.185 357.408 275.273 356.288C276.393 355.168 277.305 353.664 278.009 351.776C278.745 349.856 279.113 347.68 279.113 345.248C279.113 342.784 278.761 340.608 278.057 338.72C277.353 336.832 276.441 335.328 275.321 334.208C274.201 333.056 272.889 332.112 271.385 331.376C268.729 330.128 265.801 329.504 262.601 329.504C261.161 329.504 259.913 329.6 258.857 329.792V351.728C258.857 355.184 258.953 357.472 259.145 358.592C259.337 359.712 259.833 360.464 260.633 360.848ZM12.096 384.4C17.6 384.4 21.728 384.88 24.48 385.84C25.728 386.288 27.056 386.928 28.464 387.76C29.872 388.592 31.008 389.584 31.872 390.736C32.768 391.888 33.504 393.36 34.08 395.152C34.688 396.944 34.992 398.96 34.992 401.2C34.992 403.408 34.688 405.408 34.08 407.2C33.504 408.96 32.768 410.416 31.872 411.568C31.008 412.72 29.92 413.728 28.608 414.592C27.328 415.424 26.112 416.048 24.96 416.464C23.808 416.88 22.528 417.216 21.12 417.472C19.232 417.824 17.296 418 15.312 418H2.4L2.496 417.424C4.096 417.424 5.264 417.12 6 416.512C6.8 415.84 7.2 412.72 7.2 407.152V395.248C7.2 391.824 7.088 389.488 6.864 388.24C6.672 386.96 6.384 386.16 6 385.84C5.264 385.232 4.096 384.928 2.496 384.928L2.4 384.4H12.096ZM12.336 416.848C12.72 416.88 13.504 416.896 14.688 416.896C15.904 416.896 17.216 416.768 18.624 416.512C20.064 416.256 21.536 415.776 23.04 415.072C24.576 414.336 25.888 413.408 26.976 412.288C28.096 411.168 29.008 409.664 29.712 407.776C30.448 405.856 30.816 403.68 30.816 401.248C30.816 398.784 30.464 396.608 29.76 394.72C29.056 392.832 28.144 391.328 27.024 390.208C25.904 389.056 24.592 388.112 23.088 387.376C20.432 386.128 17.504 385.504 14.304 385.504C12.864 385.504 11.616 385.6 10.56 385.792V407.728C10.56 411.184 10.656 413.472 10.848 414.592C11.04 415.712 11.536 416.464 12.336 416.848ZM63.2483 418H39.0563L39.1523 417.424C40.7523 417.424 41.9203 417.12 42.6562 416.512C43.4563 415.84 43.8563 412.72 43.8563 407.152V395.248C43.8563 391.824 43.7443 389.488 43.5203 388.24C43.3283 386.96 43.0403 386.16 42.6562 385.84C41.9203 385.232 40.7523 384.928 39.1523 384.928L39.0563 384.4H61.4723V391.312L60.8962 391.216C60.8962 389.072 59.7603 387.584 57.4883 386.752C55.2483 385.92 51.8083 385.504 47.1683 385.504V400.624C50.2403 400.624 52.4483 400.464 53.7923 400.144C55.1363 399.824 56.0003 399.344 56.3843 398.704C56.7683 398.032 56.9603 396.928 56.9603 395.392L57.4883 395.296V406.96L56.9603 406.864C56.9603 405.296 56.7683 404.192 56.3843 403.552C56.0003 402.912 55.1363 402.448 53.7923 402.16C52.4483 401.84 50.2403 401.68 47.1683 401.68V407.872C47.1683 411.264 47.2803 413.52 47.5043 414.64C47.7603 415.76 48.3043 416.512 49.1363 416.896C58.1603 416.896 62.6723 414.976 62.6723 411.136L63.2483 411.04V418ZM76.0264 386.512C76.0264 387.056 76.0584 387.488 76.1224 387.808C76.2184 388.096 76.2824 388.336 76.3144 388.528C76.3784 388.72 76.4584 388.992 76.5544 389.344C76.6504 389.664 76.7304 389.952 76.7944 390.208C76.8904 390.432 77.0184 390.768 77.1784 391.216C77.3384 391.664 77.4664 392.032 77.5624 392.32C77.6904 392.608 77.8504 393.04 78.0424 393.616C78.2664 394.192 78.4424 394.656 78.5704 395.008L86.0584 415.408L93.1624 395.008C94.5704 390.944 95.2744 388.4 95.2744 387.376C95.2744 386.352 95.0024 385.696 94.4584 385.408C93.9144 385.12 92.9704 384.976 91.6264 384.976L91.5304 384.4H103.29L103.194 384.976C101.978 384.976 101.05 385.056 100.41 385.216C99.8024 385.376 99.1464 385.808 98.4424 386.512C97.7704 387.216 97.1464 388.208 96.5704 389.488C95.9944 390.768 95.2904 392.608 94.4584 395.008L86.3944 418.24H83.3704L74.8744 395.008C73.0824 390.208 71.8184 387.376 71.0824 386.512C70.7944 386.16 70.3944 385.84 69.8824 385.552C69.4024 385.264 68.9224 385.104 68.4424 385.072C67.9944 385.008 67.3704 384.976 66.5704 384.976L66.4744 384.4H79.4344L79.3384 384.976C78.1224 384.976 77.2584 385.088 76.7464 385.312C76.2664 385.536 76.0264 385.936 76.0264 386.512ZM130.139 418H105.947L106.043 417.424C107.643 417.424 108.811 417.12 109.547 416.512C110.347 415.84 110.747 412.72 110.747 407.152V395.248C110.747 391.824 110.635 389.488 110.411 388.24C110.219 386.96 109.931 386.16 109.547 385.84C108.811 385.232 107.643 384.928 106.043 384.928L105.947 384.4H128.363V391.312L127.787 391.216C127.787 389.072 126.651 387.584 124.379 386.752C122.139 385.92 118.699 385.504 114.059 385.504V400.624C117.131 400.624 119.339 400.464 120.683 400.144C122.027 399.824 122.891 399.344 123.275 398.704C123.659 398.032 123.851 396.928 123.851 395.392L124.379 395.296V406.96L123.851 406.864C123.851 405.296 123.659 404.192 123.275 403.552C122.891 402.912 122.027 402.448 120.683 402.16C119.339 401.84 117.131 401.68 114.059 401.68V407.872C114.059 411.264 114.171 413.52 114.395 414.64C114.651 415.76 115.195 416.512 116.027 416.896C125.051 416.896 129.563 414.976 129.563 411.136L130.139 411.04V418ZM158.517 418H135.573L135.669 417.424C136.437 417.424 137.045 417.392 137.493 417.328C137.973 417.264 138.405 417.088 138.789 416.8C139.173 416.512 139.445 416.192 139.605 415.84C139.797 415.456 139.957 414.832 140.085 413.968C140.245 412.848 140.325 410.576 140.325 407.152V395.248C140.325 390.48 140.101 387.584 139.653 386.56C139.237 385.664 138.533 385.152 137.541 385.024C137.061 384.96 136.437 384.928 135.669 384.928L135.573 384.4H148.485L148.389 384.928C146.789 384.928 145.621 385.232 144.885 385.84C144.085 386.512 143.685 389.648 143.685 395.248V407.872C143.685 411.328 143.797 413.632 144.021 414.784C144.245 415.904 144.773 416.656 145.605 417.04C153.861 417.04 157.989 415.072 157.989 411.136L158.517 411.04V418ZM178.087 383.968C183.239 383.968 187.351 385.552 190.423 388.72C193.527 391.856 195.079 395.936 195.079 400.96C195.079 405.952 193.575 410.128 190.567 413.488C187.591 416.816 183.543 418.48 178.423 418.48C173.303 418.48 169.175 416.8 166.039 413.44C162.935 410.08 161.383 405.904 161.383 400.912C161.383 395.888 162.871 391.808 165.847 388.672C168.855 385.536 172.935 383.968 178.087 383.968ZM178.375 417.376C182.471 417.376 185.575 415.904 187.687 412.96C189.831 409.984 190.903 406.08 190.903 401.248C190.903 396.416 189.783 392.512 187.543 389.536C185.303 386.56 182.135 385.072 178.039 385.072C173.975 385.072 170.871 386.544 168.727 389.488C166.615 392.432 165.559 396.336 165.559 401.2C165.559 406.032 166.679 409.936 168.919 412.912C171.159 415.888 174.311 417.376 178.375 417.376ZM211.757 384.4C220.237 384.4 224.477 387.632 224.477 394.096C224.477 396.944 223.469 399.28 221.453 401.104C219.469 402.928 217.101 403.84 214.349 403.84C211.597 403.84 209.261 403.392 207.341 402.496V407.152C207.341 410.576 207.437 412.912 207.629 414.16C207.853 415.408 208.157 416.192 208.541 416.512C209.277 417.12 210.445 417.424 212.045 417.424L212.141 418H199.181L199.277 417.424C200.877 417.424 202.045 417.12 202.781 416.512C203.581 415.84 203.981 412.72 203.981 407.152V395.248C203.981 391.824 203.869 389.488 203.645 388.24C203.453 386.992 203.165 386.208 202.781 385.888C202.045 385.28 200.877 384.976 199.277 384.976L199.181 384.4H211.757ZM207.341 385.504V401.296C209.005 402.192 210.957 402.64 213.197 402.64C215.469 402.64 217.293 401.936 218.669 400.528C220.045 399.088 220.733 396.944 220.733 394.096C220.733 390.544 219.581 388.176 217.277 386.992C215.389 386 213.117 385.504 210.461 385.504H207.341ZM252.014 418H227.822L227.918 417.424C229.518 417.424 230.686 417.12 231.422 416.512C232.222 415.84 232.622 412.72 232.622 407.152V395.248C232.622 391.824 232.51 389.488 232.286 388.24C232.094 386.96 231.806 386.16 231.422 385.84C230.686 385.232 229.518 384.928 227.918 384.928L227.822 384.4H250.238V391.312L249.662 391.216C249.662 389.072 248.526 387.584 246.254 386.752C244.014 385.92 240.574 385.504 235.934 385.504V400.624C239.006 400.624 241.214 400.464 242.558 400.144C243.902 399.824 244.766 399.344 245.15 398.704C245.534 398.032 245.726 396.928 245.726 395.392L246.254 395.296V406.96L245.726 406.864C245.726 405.296 245.534 404.192 245.15 403.552C244.766 402.912 243.902 402.448 242.558 402.16C241.214 401.84 239.006 401.68 235.934 401.68V407.872C235.934 411.264 236.046 413.52 236.27 414.64C236.526 415.76 237.07 416.512 237.902 416.896C246.926 416.896 251.438 414.976 251.438 411.136L252.014 411.04V418ZM281.928 418C281.128 418 280.328 417.6 279.528 416.8C278.76 415.968 278.056 414.944 277.416 413.728C276.808 412.512 276.088 411.2 275.256 409.792C274.424 408.352 273.592 407.008 272.76 405.76C271.928 404.512 270.872 403.456 269.592 402.592C268.312 401.728 266.952 401.264 265.512 401.2V407.152C265.512 410.608 265.608 412.96 265.8 414.208C266.024 415.424 266.328 416.192 266.712 416.512C267.48 417.12 268.664 417.424 270.264 417.424L270.36 418H257.496L257.592 417.424C259.16 417.424 260.312 417.136 261.048 416.56C261.656 416.08 262.008 414.512 262.104 411.856C262.168 410.8 262.2 409.232 262.2 407.152V395.008C262.2 391.456 262.104 389.104 261.912 387.952C261.72 386.8 261.432 386.08 261.048 385.792C260.312 385.248 259.16 384.976 257.592 384.976L257.496 384.4H268.632C276.696 384.4 280.728 387.12 280.728 392.56C280.728 394.896 279.896 396.864 278.232 398.464C276.6 400.032 274.616 400.944 272.28 401.2C274.616 402.576 276.776 405.104 278.76 408.784C279.528 410.224 280.344 411.6 281.208 412.912C283.096 415.92 285.528 417.424 288.504 417.424L288.6 418H281.928ZM265.512 385.504V400.24H268.536C270.968 400.24 272.984 399.616 274.584 398.368C276.184 397.12 276.984 395.264 276.984 392.8C276.984 387.936 274.2 385.504 268.632 385.504H265.512Z" fill="black"/>
<path d="M425.136 202.776V202.2H432V221.448H431.376C426.864 216.872 422.528 213.24 418.368 210.552C414.208 207.864 410.736 206.52 407.952 206.52C406.16 206.52 404.704 206.984 403.584 207.912C402.464 208.84 401.904 210.168 401.904 211.896C401.904 212.984 402.16 213.928 402.672 214.728C403.184 215.528 403.744 216.12 404.352 216.504C404.96 216.888 405.52 217.32 406.032 217.8C406.544 218.248 406.8 218.712 406.8 219.192C406.8 219.672 406.656 220.072 406.368 220.392C406.048 220.68 405.664 220.824 405.216 220.824C404 220.824 402.944 219.944 402.048 218.184C401.12 216.424 400.656 214.312 400.656 211.848C400.656 209.384 401.248 207.288 402.432 205.56C403.616 203.832 405.52 202.968 408.144 202.968C411.152 202.968 414.56 204.488 418.368 207.528C420.384 209.16 422.192 210.712 423.792 212.184C425.36 213.656 427.456 215.704 430.08 218.328C430.08 213.144 429.744 209.256 429.072 206.664C428.4 204.072 427.088 202.776 425.136 202.776ZM416.688 196.401C411.696 196.401 407.776 195.377 404.928 193.329C402.08 191.249 400.656 188.593 400.656 185.361C400.656 182.129 402.08 179.505 404.928 177.489C407.776 175.441 411.696 174.417 416.688 174.417C421.648 174.417 425.52 175.425 428.304 177.441C431.088 179.457 432.48 182.097 432.48 185.361C432.48 188.593 431.088 191.249 428.304 193.329C425.52 195.377 421.648 196.401 416.688 196.401ZM416.64 192.945C420.928 192.945 424.416 192.225 427.104 190.785C429.76 189.313 431.088 187.505 431.088 185.361C431.088 183.185 429.76 181.393 427.104 179.985C424.448 178.577 420.976 177.873 416.688 177.873C412.368 177.873 408.832 178.577 406.08 179.985C403.296 181.393 401.904 183.185 401.904 185.361C401.904 187.505 403.296 189.313 406.08 190.785C408.832 192.225 412.352 192.945 416.64 192.945ZM425.136 149.995V149.419H432V168.667H431.376C426.864 164.091 422.528 160.459 418.368 157.771C414.208 155.083 410.736 153.739 407.952 153.739C406.16 153.739 404.704 154.203 403.584 155.131C402.464 156.059 401.904 157.387 401.904 159.115C401.904 160.203 402.16 161.147 402.672 161.947C403.184 162.747 403.744 163.339 404.352 163.723C404.96 164.107 405.52 164.539 406.032 165.019C406.544 165.467 406.8 165.931 406.8 166.411C406.8 166.891 406.656 167.291 406.368 167.611C406.048 167.899 405.664 168.043 405.216 168.043C404 168.043 402.944 167.163 402.048 165.403C401.12 163.643 400.656 161.531 400.656 159.067C400.656 156.603 401.248 154.507 402.432 152.779C403.616 151.051 405.52 150.187 408.144 150.187C411.152 150.187 414.56 151.707 418.368 154.747C420.384 156.379 422.192 157.931 423.792 159.403C425.36 160.875 427.456 162.923 430.08 165.547C430.08 160.363 429.744 156.475 429.072 153.883C428.4 151.291 427.088 149.995 425.136 149.995ZM422.928 123.268C425.68 123.268 427.968 124.356 429.792 126.532C431.584 128.676 432.48 131.172 432.48 134.02C432.48 137.892 431.232 140.836 428.736 142.852L427.824 141.892C429.744 140.228 430.704 137.796 430.704 134.596C430.704 132.484 430.064 130.66 428.784 129.124C427.504 127.588 425.776 126.82 423.6 126.82C418.544 126.82 416.016 130.644 416.016 138.292H415.104C415.104 135.796 414.448 133.492 413.136 131.38C411.792 129.236 409.856 128.164 407.328 128.164C405.728 128.164 404.432 128.58 403.44 129.412C402.416 130.244 401.904 131.46 401.904 133.06C401.904 134.052 402.176 134.932 402.72 135.7C403.232 136.468 403.792 137.044 404.4 137.428C405.008 137.812 405.584 138.26 406.128 138.772C406.64 139.252 406.896 139.748 406.896 140.26C406.896 140.772 406.736 141.188 406.416 141.508C406.064 141.828 405.664 141.988 405.216 141.988C403.968 141.988 402.896 141.124 402 139.396C401.104 137.636 400.656 135.524 400.656 133.06C400.656 130.596 401.184 128.58 402.24 127.012C403.264 125.412 404.864 124.612 407.04 124.612C409.216 124.612 410.976 125.364 412.32 126.868C413.664 128.34 414.608 130.068 415.152 132.052H415.344C415.504 129.076 416.336 126.868 417.84 125.428C419.312 123.988 421.008 123.268 422.928 123.268Z" fill="black"/>
</svg>
